{
  "accessors": [
    {
      "bufferView": 0,
      "componentType": 5125,
      "count": 1026,
      "type": "SCALAR"
    },
    {
      "bufferView": 1,
      "componentType": 5125,
      "count": 1026,
      "type": "SCALAR"
    },
    {
      "bufferView": 2,
      "componentType": 5125,
      "count": 1584,
      "type": "SCALAR"
    },
    {
      "bufferView": 3,
      "componentType": 5126,
      "count": 724,
      "max": [
        0.1002500057220459,
        0.1002500057220459,
        0.20025001466274261
      ],
      "min": [
        -0.1002500057220459,
        -0.1002500057220459,
        0.19975000619888306
      ],
      "type": "VEC3"
    },
    {
      "bufferView": 4,
      "componentType": 5126,
      "count": 724,
      "type": "VEC3"
    },
    {
      "bufferView": 5,
      "componentType": 5126,
      "count": 724,
      "type": "VEC2"
    },
    {
      "bufferView": 6,
      "componentType": 5125,
      "count": 1026,
      "type": "SCALAR"
    },
    {
      "bufferView": 7,
      "componentType": 5125,
      "count": 1026,
      "type": "SCALAR"
    },
    {
      "bufferView": 8,
      "componentType": 5125,
      "count": 1584,
      "type": "SCALAR"
    },
    {
      "bufferView": 9,
      "componentType": 5126,
      "count": 724,
      "max": [
        0.1002500057220459,
        0.1002500057220459,
        0.20025001466274261
      ],
      "min": [
        -0.1002500057220459,
        -0.1002500057220459,
        0.19975000619888306
      ],
      "type": "VEC3"
    },
    {
      "bufferView": 10,
      "componentType": 5126,
      "count": 724,
      "type": "VEC3"
    },
    {
      "bufferView": 11,
      "componentType": 5126,
      "count": 724,
      "type": "VEC2"
    },
    {
      "bufferView": 12,
      "componentType": 5125,
      "count": 1026,
      "type": "SCALAR"
    },
    {
      "bufferView": 13,
      "componentType": 5125,
      "count": 1026,
      "type": "SCALAR"
    },
    {
      "bufferView": 14,
      "componentType": 5125,
      "count": 1584,
      "type": "SCALAR"
    },
    {
      "bufferView": 15,
      "componentType": 5126,
      "count": 724,
      "max": [
        0.1002500057220459,
        0.1002500057220459,
        0.20025001466274261
      ],
      "min": [
        -0.1002500057220459,
        -0.1002500057220459,
        0.19975000619888306
      ],
      "type": "VEC3"
    },
    {
      "bufferView": 16,
      "componentType": 5126,
      "count": 724,
      "type": "VEC3"
    },
    {
      "bufferView": 17,
      "componentType": 5126,
      "count": 724,
      "type": "VEC2"
    },
    {
      "bufferView": 18,
      "componentType": 5125,
      "count": 1026,
      "type": "SCALAR"
    },
    {
      "bufferView": 19,
      "componentType": 5125,
      "count": 1026,
      "type": "SCALAR"
    },
    {
      "bufferView": 20,
      "componentType": 5125,
      "count": 1584,
      "type": "SCALAR"
    },
    {
      "bufferView": 21,
      "componentType": 5126,
      "count": 724,
      "max": [
        0.1002500057220459,
        0.1002500057220459,
        0.20025001466274261
      ],
      "min": [
        -0.1002500057220459,
        -0.1002500057220459,
        0.19975000619888306
      ],
      "type": "VEC3"
    },
    {
      "bufferView": 22,
      "componentType": 5126,
      "count": 724,
      "type": "VEC3"
    },
    {
      "bufferView": 23,
      "componentType": 5126,
      "count": 724,
      "type": "VEC2"
    },
    {
      "bufferView": 24,
      "componentType": 5125,
      "count": 1026,
      "type": "SCALAR"
    },
    {
      "bufferView": 25,
      "componentType": 5125,
      "count": 1026,
      "type": "SCALAR"
    },
    {
      "bufferView": 26,
      "componentType": 5125,
      "count": 1584,
      "type": "SCALAR"
    },
    {
      "bufferView": 27,
      "componentType": 5126,
      "count": 724,
      "max": [
        0.1002500057220459,
        0.1002500057220459,
        0.20025001466274261
      ],
      "min": [
        -0.1002500057220459,
        -0.1002500057220459,
        0.19975000619888306
      ],
      "type": "VEC3"
    },
    {
      "bufferView": 28,
      "componentType": 5126,
      "count": 724,
      "type": "VEC3"
    },
    {
      "bufferView": 29,
      "componentType": 5126,
      "count": 724,
      "type": "VEC2"
    }
  ],
  "asset": {
    "generator": "CLO Standalone OnlineAuth 2026.1.224",
    "version": "2.0"
  },
  "bufferViews": [
    {
      "buffer": 0,
      "byteLength": 4104
    },
    {
      "buffer": 0,
      "byteLength": 4104,
      "byteOffset": 4104
    },
    {
      "buffer": 0,
      "byteLength": 6336,
      "byteOffset": 8208
    },
    {
      "buffer": 0,
      "byteLength": 8688,
      "byteOffset": 14544
    },
    {
      "buffer": 0,
      "byteLength": 8688,
      "byteOffset": 23232
    },
    {
      "buffer": 0,
      "byteLength": 5792,
      "byteOffset": 31920
    },
    {
      "buffer": 0,
      "byteLength": 4104,
      "byteOffset": 37712
    },
    {
      "buffer": 0,
      "byteLength": 4104,
      "byteOffset": 41816
    },
    {
      "buffer": 0,
      "byteLength": 6336,
      "byteOffset": 45920
    },
    {
      "buffer": 0,
      "byteLength": 8688,
      "byteOffset": 52256
    },
    {
      "buffer": 0,
      "byteLength": 8688,
      "byteOffset": 60944
    },
    {
      "buffer": 0,
      "byteLength": 5792,
      "byteOffset": 69632
    },
    {
      "buffer": 0,
      "byteLength": 4104,
      "byteOffset": 75424
    },
    {
      "buffer": 0,
      "byteLength": 4104,
      "byteOffset": 79528
    },
    {
      "buffer": 0,
      "byteLength": 6336,
      "byteOffset": 83632
    },
    {
      "buffer": 0,
      "byteLength": 8688,
      "byteOffset": 89968
    },
    {
      "buffer": 0,
      "byteLength": 8688,
      "byteOffset": 98656
    },
    {
      "buffer": 0,
      "byteLength": 5792,
      "byteOffset": 107344
    },
    {
      "buffer": 0,
      "byteLength": 4104,
      "byteOffset": 113136
    },
    {
      "buffer": 0,
      "byteLength": 4104,
      "byteOffset": 117240
    },
    {
      "buffer": 0,
      "byteLength": 6336,
      "byteOffset": 121344
    },
    {
      "buffer": 0,
      "byteLength": 8688,
      "byteOffset": 127680
    },
    {
      "buffer": 0,
      "byteLength": 8688,
      "byteOffset": 136368
    },
    {
      "buffer": 0,
      "byteLength": 5792,
      "byteOffset": 145056
    },
    {
      "buffer": 0,
      "byteLength": 4104,
      "byteOffset": 150848
    },
    {
      "buffer": 0,
      "byteLength": 4104,
      "byteOffset": 154952
    },
    {
      "buffer": 0,
      "byteLength": 6336,
      "byteOffset": 159056
    },
    {
      "buffer": 0,
      "byteLength": 8688,
      "byteOffset": 165392
    },
    {
      "buffer": 0,
      "byteLength": 8688,
      "byteOffset": 174080
    },
    {
      "buffer": 0,
      "byteLength": 5792,
      "byteOffset": 182768
    }
  ],
  "buffers": [
    {
      "byteLength": 188560,
      "uri": "data:application/octet-stream;base64,"
    }
  ],
  "extensionsUsed": [
    "CLO_materials_fabric_property",
    "KHR_materials_specular"
  ],
  "materials": [
    {
      "extensions": {
        "CLO_materials_fabric_property": {
          "physicalProperty": {
            "bendingLeftBias": 6283.185546875,
            "bendingRightBias": 6283.185546875,
            "bendingWarp": 6283.185546875,
            "bendingWeft": 6283.185546875,
            "bucklingRatioLeftBias": 0.800000011920929,
            "bucklingRatioRightBias": 0.800000011920929,
            "bucklingRatioWarp": 0.800000011920929,
            "bucklingRatioWeft": 0.800000011920929,
            "bucklingStiffnessLeftBias": 0.800000011920929,
            "bucklingStiffnessRightBias": 0.800000011920929,
            "bucklingStiffnessWarp": 0.800000011920929,
            "bucklingStiffnessWeft": 0.800000011920929,
            "density": 300.0,
            "friction": 0.029999999329447746,
            "internalDamping": 9.999999747378752e-05,
            "leftShear": 20000.0,
            "rightShear": 20000.0,
            "stretchWarp": 100000.0,
            "stretchWeft": 100000.0,
            "thickness": 0.5
          },
          "textureMapping": {
            "type": 0
          }
        },
        "KHR_materials_specular": {
          "specularFactor": 0.15000000596046448
        }
      },
      "name": "Body_8589",
      "pbrMetallicRoughness": {
        "baseColorFactor": [
          0.5989418029785156,
          0.6186857223510742,
          0.008373117074370384,
          1.0
        ],
        "metallicFactor": 0.0,
        "roughnessFactor": 0.5
      }
    },
    {
      "extensions": {
        "CLO_materials_fabric_property": {
          "physicalProperty": {
            "bendingLeftBias": 6283.185546875,
            "bendingRightBias": 6283.185546875,
            "bendingWarp": 6283.185546875,
            "bendingWeft": 6283.185546875,
            "bucklingRatioLeftBias": 0.800000011920929,
            "bucklingRatioRightBias": 0.800000011920929,
            "bucklingRatioWarp": 0.800000011920929,
            "bucklingRatioWeft": 0.800000011920929,
            "bucklingStiffnessLeftBias": 0.800000011920929,
            "bucklingStiffnessRightBias": 0.800000011920929,
            "bucklingStiffnessWarp": 0.800000011920929,
            "bucklingStiffnessWeft": 0.800000011920929,
            "density": 300.0,
            "friction": 0.029999999329447746,
            "internalDamping": 9.999999747378752e-05,
            "leftShear": 20000.0,
            "rightShear": 20000.0,
            "stretchWarp": 100000.0,
            "stretchWeft": 100000.0,
            "thickness": 0.5
          },
          "textureMapping": {
            "type": 0
          }
        },
        "KHR_materials_specular": {
          "specularFactor": 0.15000000596046448
        }
      },
      "name": "Body_8592",
      "pbrMetallicRoughness": {
        "metallicFactor": 0.0,
        "roughnessFactor": 0.5
      }
    },
    {
      "extensions": {
        "CLO_materials_fabric_property": {
          "physicalProperty": {
            "bendingLeftBias": 6283.185546875,
            "bendingRightBias": 6283.185546875,
            "bendingWarp": 6283.185546875,
            "bendingWeft": 6283.185546875,
            "bucklingRatioLeftBias": 0.800000011920929,
            "bucklingRatioRightBias": 0.800000011920929,
            "bucklingRatioWarp": 0.800000011920929,
            "bucklingRatioWeft": 0.800000011920929,
            "bucklingStiffnessLeftBias": 0.800000011920929,
            "bucklingStiffnessRightBias": 0.800000011920929,
            "bucklingStiffnessWarp": 0.800000011920929,
            "bucklingStiffnessWeft": 0.800000011920929,
            "density": 300.0,
            "friction": 0.029999999329447746,
            "internalDamping": 9.999999747378752e-05,
            "leftShear": 20000.0,
            "rightShear": 20000.0,
            "stretchWarp": 100000.0,
            "stretchWeft": 100000.0,
            "thickness": 0.5
          },
          "textureMapping": {
            "type": 0
          }
        },
        "KHR_materials_specular": {
          "specularFactor": 0.15000000596046448
        }
      },
      "name": "Sleeves_8595",
      "pbrMetallicRoughness": {
        "baseColorFactor": [
          0.2297019511461258,
          0.9157501459121704,
          0.31865194439888,
          1.0
        ],
        "metallicFactor": 0.0,
        "roughnessFactor": 0.5
      }
    },
    {
      "extensions": {
        "CLO_materials_fabric_property": {
          "physicalProperty": {
            "bendingLeftBias": 6283.185546875,
            "bendingRightBias": 6283.185546875,
            "bendingWarp": 6283.185546875,
            "bendingWeft": 6283.185546875,
            "bucklingRatioLeftBias": 0.800000011920929,
            "bucklingRatioRightBias": 0.800000011920929,
            "bucklingRatioWarp": 0.800000011920929,
            "bucklingRatioWeft": 0.800000011920929,
            "bucklingStiffnessLeftBias": 0.800000011920929,
            "bucklingStiffnessRightBias": 0.800000011920929,
            "bucklingStiffnessWarp": 0.800000011920929,
            "bucklingStiffnessWeft": 0.800000011920929,
            "density": 300.0,
            "friction": 0.029999999329447746,
            "internalDamping": 9.999999747378752e-05,
            "leftShear": 20000.0,
            "rightShear": 20000.0,
            "stretchWarp": 100000.0,
            "stretchWeft": 100000.0,
            "thickness": 0.5
          },
          "textureMapping": {
            "type": 0
          }
        },
        "KHR_materials_specular": {
          "specularFactor": 0.15000000596046448
        }
      },
      "name": "Spandex_8598",
      "pbrMetallicRoughness": {
        "baseColorFactor": [
          0.0,
          0.0,
          0.0,
          1.0
        ],
        "metallicFactor": 0.0,
        "roughnessFactor": 0.5
      }
    },
    {
      "extensions": {
        "CLO_materials_fabric_property": {
          "physicalProperty": {
            "bendingLeftBias": 471.2389221191406,
            "bendingRightBias": 471.2389221191406,
            "bendingWarp": 1884.9556884765625,
            "bendingWeft": 314.1592712402344,
            "bucklingRatioLeftBias": 0.0,
            "bucklingRatioRightBias": 0.0,
            "bucklingRatioWarp": 0.0,
            "bucklingRatioWeft": 0.0,
            "bucklingStiffnessLeftBias": 0.0,
            "bucklingStiffnessRightBias": 0.0,
            "bucklingStiffnessWarp": 0.0,
            "bucklingStiffnessWeft": 0.0,
            "density": 300.0,
            "friction": 0.029999999329447746,
            "internalDamping": 9.999999747378752e-05,
            "leftShear": 10000.0,
            "rightShear": 10000.0,
            "stretchWarp": 100000.0,
            "stretchWeft": 100000.0,
            "thickness": 0.5
          },
          "textureMapping": {
            "type": 0
          }
        },
        "KHR_materials_specular": {
          "specularFactor": 0.15000000596046448
        }
      },
      "name": "Spandex_8601",
      "pbrMetallicRoughness": {
        "baseColorFactor": [
          0.0,
          0.0,
          0.0,
          1.0
        ],
        "metallicFactor": 0.0,
        "roughnessFactor": 0.5
      }
    }
  ],
  "meshes": [
    {
      "name": "Body",
      "primitives": [
        {
          "attributes": {
            "NORMAL": 4,
            "POSITION": 3,
            "TEXCOORD_0": 5
          },
          "indices": 0,
          "material": 0
        },
        {
          "attributes": {
            "NORMAL": 4,
            "POSITION": 3,
            "TEXCOORD_0": 5
          },
          "indices": 1,
          "material": 0
        },
        {
          "attributes": {
            "NORMAL": 4,
            "POSITION": 3,
            "TEXCOORD_0": 5
          },
          "indices": 2,
          "material": 0
        }
      ]
    },
    {
      "name": "Body",
      "primitives": [
        {
          "attributes": {
            "NORMAL": 10,
            "POSITION": 9,
            "TEXCOORD_0": 11
          },
          "indices": 6,
          "material": 1
        },
        {
          "attributes": {
            "NORMAL": 10,
            "POSITION": 9,
            "TEXCOORD_0": 11
          },
          "indices": 7,
          "material": 1
        },
        {
          "attributes": {
            "NORMAL": 10,
            "POSITION": 9,
            "TEXCOORD_0": 11
          },
          "indices": 8,
          "material": 1
        }
      ]
    },
    {
      "name": "Sleeves",
      "primitives": [
        {
          "attributes": {
            "NORMAL": 16,
            "POSITION": 15,
            "TEXCOORD_0": 17
          },
          "indices": 12,
          "material": 2
        },
        {
          "attributes": {
            "NORMAL": 16,
            "POSITION": 15,
            "TEXCOORD_0": 17
          },
          "indices": 13,
          "material": 2
        },
        {
          "attributes": {
            "NORMAL": 16,
            "POSITION": 15,
            "TEXCOORD_0": 17
          },
          "indices": 14,
          "material": 2
        }
      ]
    },
    {
      "name": "Spandex",
      "primitives": [
        {
          "attributes": {
            "NORMAL": 22,
            "POSITION": 21,
            "TEXCOORD_0": 23
          },
          "indices": 18,
          "material": 3
        },
        {
          "attributes": {
            "NORMAL": 22,
            "POSITION": 21,
            "TEXCOORD_0": 23
          },
          "indices": 19,
          "material": 3
        },
        {
          "attributes": {
            "NORMAL": 22,
            "POSITION": 21,
            "TEXCOORD_0": 23
          },
          "indices": 20,
          "material": 3
        }
      ]
    },
    {
      "name": "Spandex",
      "primitives": [
        {
          "attributes": {
            "NORMAL": 28,
            "POSITION": 27,
            "TEXCOORD_0": 29
          },
          "indices": 24,
          "material": 4
        },
        {
          "attributes": {
            "NORMAL": 28,
            "POSITION": 27,
            "TEXCOORD_0": 29
          },
          "indices": 25,
          "material": 4
        },
        {
          "attributes": {
            "NORMAL": 28,
            "POSITION": 27,
            "TEXCOORD_0": 29
          },
          "indices": 26,
          "material": 4
        }
      ]
    }
  ],
  "nodes": [
    {
      "children": [
        1,
        2,
        3,
        4,
        5
      ]
    },
    {
      "mesh": 0
    },
    {
      "mesh": 1
    },
    {
      "mesh": 2
    },
    {
      "mesh": 3
    },
    {
      "mesh": 4
    }
  ],
  "scene": 0,
  "scenes": [
    {
      "nodes": [
        0
      ]
    }
  ]
}